<svg id="Capa_1" enable-background="new 0 0 512 512" height="512" viewBox="0 0 512 512" width="512" xmlns="http://www.w3.org/2000/svg"><g><g><g><g><path d="m369.851 268.159h-118.498c-24.302 0-44.002-19.8-44.002-44.225v-112.66c0-57.313 46.227-103.774 103.251-103.774 57.024 0 103.251 46.461 103.251 103.774v112.66c0 24.425-19.7 44.225-44.002 44.225z" fill="#e19974"/><path d="m310.602 7.5c-5.096 0-10.103.377-15 1.094 49.914 7.302 88.251 50.488 88.251 102.68v112.66c0 24.425-19.7 44.225-44.002 44.225h30c24.302 0 44.002-19.8 44.002-44.225v-112.66c0-57.313-46.227-103.774-103.251-103.774z" fill="#dc8758"/><g><path d="m451.516 439.334h51.87l-31.364-132.398c-4.609-19.458-19.889-34.549-39.325-38.843l-69.904-15.441-17.735-.604c-7.93-1.752-13.579-8.813-13.579-16.973v-52.931h-41.754v52.931c0 8.16-5.649 15.221-13.579 16.973l-17.735.604-69.904 15.441c-19.437 4.293-34.716 19.385-39.325 38.843l-31.364 132.398" fill="#aee49e"/><g><path d="m343.122 269.934 59.574 13.16c19.437 4.293 34.716 19.385 39.325 38.843l27.811 117.398h33.553l-31.364-132.398c-4.609-19.458-19.889-34.549-39.325-38.843l-69.904-15.441z" fill="#8bd8a5"/></g><path d="m490.521 466.136-70.214 21.421-9.067-43.691 68.795-16.571c10.758-2.591 21.568 4.073 24.147 14.885 2.47 10.36-3.518 20.861-13.661 23.956z" fill="#ffcebf"/><path d="m504.181 442.18c-2.578-10.812-13.389-17.476-24.146-14.885l-13.603 3.276c3.746 2.72 6.587 6.737 7.749 11.609 2.47 10.36-3.518 20.861-13.66 23.955l-42 12.814 1.786 8.608 70.214-21.421c10.143-3.095 16.131-13.596 13.66-23.956z" fill="#ffb09e"/></g><g><path d="m130.685 466.136 70.214 21.421 9.067-43.691-68.795-16.571c-10.758-2.591-21.568 4.073-24.147 14.885-2.469 10.36 3.519 20.861 13.661 23.956z" fill="#ffcebf"/></g><path d="m258.412 252.653c12.007 15.763 30.912 25.938 52.191 25.938s40.183-10.175 52.191-25.938l-17.735-.604c-7.93-1.752-13.579-8.813-13.579-16.973v-52.931h-56.754v52.931c0 8.16-5.649 15.221-13.579 16.973z" fill="#ffcebf"/><path d="m330.058 267.048 13.065 2.886c7.651-4.394 14.341-10.285 19.67-17.282l-2.735-.604c-7.93-1.752-13.579-8.813-13.579-16.973v-52.931h-30v67.931c0 8.161 5.649 15.222 13.579 16.973z" fill="#ffb09e"/><path d="m386.586 102.654c-6.503-1.875-17.202-5.857-27.996-14.587-9.473-7.662-15.429-16.077-19.001-22.275-1.085-1.883-3.609-2.309-5.241-.88-7.188 6.298-16.214 13.026-27.252 19.051-28.86 15.753-56.398 18.468-72.477 18.69v48.691c0 28.997 16.079 54.219 39.765 67.151 10.766 5.878 21.658 5.474 34.772 5.474 0 0 26.668.466 37.363-5.31 23.851-12.882 40.067-38.195 40.067-67.315z" fill="#ffcebf"/><path d="m358.59 88.067c-9.494-7.679-15.456-16.115-19.025-22.316-1.078-1.872-3.59-2.263-5.215-.84-4.703 4.121-10.21 8.423-16.536 12.596 2.947 3.492 6.5 7.102 10.776 10.56 4.898 3.962 9.777 6.946 14.253 9.199 8.379 4.217 13.743 12.708 13.743 22.088v31.991c.227 4.806.888 29.179-17.45 48.692-25.253 26.872-62.596 19.055-64.411 18.643 7.411 3.883 17.322 7.695 29.295 8.748 2.279.201 4.476.287 6.581.285 41.965 0 75.984-34.191 75.984-76.369v-48.691c-6.502-1.874-17.201-5.856-27.995-14.586z" fill="#ffb09e"/><path d="m395.874 138.705h-9.288v-36.05h9.288c9.93 0 17.98 8.05 17.98 17.98v.091c-.001 9.929-8.05 17.979-17.98 17.979z" fill="#ffcebf"/><path d="m225.331 138.705h9.288v-36.05h-9.288c-9.93 0-17.98 8.05-17.98 17.98v.091c0 9.929 8.05 17.979 17.98 17.979z" fill="#ffb09e"/><g><g><g><path d="m186.585 474.5h248.035c4.856 0 8.792 4.477 8.792 10v10c0 5.523-3.936 10-8.792 10h-248.035c-4.856 0-8.792-4.477-8.792-10v-10c0-5.523 3.936-10 8.792-10z" fill="#355f7f"/><path d="m434.62 474.5h-30c4.855 0 8.792 4.477 8.792 10v10c0 5.523-3.936 10-8.792 10h30c4.855 0 8.792-4.477 8.792-10v-10c-.001-5.523-3.937-10-8.792-10z" fill="#305972"/><g><path d="m416.969 474.5h-212.734c-14.603 0-26.442-11.838-26.442-26.442v-119.423c0-14.603 11.838-26.442 26.442-26.442h212.734c14.603 0 26.442 11.838 26.442 26.442v119.423c0 14.604-11.838 26.442-26.442 26.442z" fill="#3f6e90"/></g><path d="m416.969 302.193h-30c14.604 0 26.442 11.838 26.442 26.442v119.423c0 14.604-11.838 26.442-26.442 26.442h30c14.604 0 26.442-11.838 26.442-26.442v-119.423c0-14.604-11.838-26.442-26.442-26.442z" fill="#355f7f"/></g></g><ellipse cx="310.602" cy="391.838" fill="#fff" rx="28.573" ry="28.718"/></g></g></g><g><path d="m138.031 223.393h-10.005c-2.261 0-4.095 1.833-4.095 4.095v12.822c0 3.27-3.645 5.221-6.366 3.407l-16.138-18.948c-1.345-.897-2.926-1.375-4.542-1.375h-64.581c-13.568 0-24.567-10.999-24.567-24.567v-60.113c0-13.568 10.999-24.567 24.567-24.567h105.727c13.568 0 24.567 10.999 24.567 24.567v60.113c0 13.567-10.999 24.566-24.567 24.566z" fill="#aee49e"/><path d="m138.031 114.146h-30c13.568 0 24.567 10.999 24.567 24.567v60.113c0 13.568-10.999 24.567-24.567 24.567h-10.005c-.165 0-.322.03-.482.049 1.384.112 2.723.553 3.884 1.327l16.138 18.948c2.721 1.814 6.366-.137 6.366-3.407v-12.822c0-2.261 1.833-4.094 4.094-4.094h10.005c13.568 0 24.567-10.999 24.567-24.567v-60.113c0-13.569-10.999-24.568-24.567-24.568z" fill="#8bd8a5"/></g></g><path d="m124.182 176.27h-78.028c-4.142 0-7.5 3.358-7.5 7.5s3.358 7.5 7.5 7.5h78.028c4.142 0 7.5-3.358 7.5-7.5s-3.358-7.5-7.5-7.5zm0-30h-78.028c-4.142 0-7.5 3.358-7.5 7.5s3.358 7.5 7.5 7.5h78.028c4.142 0 7.5-3.358 7.5-7.5s-3.358-7.5-7.5-7.5zm1.126 104.262c3.777-2.021 6.124-5.938 6.124-10.223v-9.416h6.6c17.682 0 32.067-14.385 32.067-32.067v-60.113c0-17.682-14.385-32.067-32.067-32.067h-44.493c-4.142 0-7.5 3.358-7.5 7.5s3.358 7.5 7.5 7.5h44.492c9.411 0 17.067 7.656 17.067 17.067v60.113c0 9.411-7.656 17.067-17.067 17.067h-10.005c-6.394 0-11.595 5.201-11.595 11.594v3.33l-9.294-10.912c-2.419-2.775-6.687-4-10.252-4.012h-64.581c-9.411 0-17.067-7.656-17.067-17.067v-60.113c0-9.411 7.656-17.067 17.067-17.067h26.235c4.142 0 7.5-3.358 7.5-7.5s-3.358-7.5-7.5-7.5h-26.235c-17.682 0-32.067 14.385-32.067 32.067v60.113c0 17.682 14.385 32.067 32.067 32.067h64.489l15.063 17.686c3.23 3.707 9.248 4.203 13.452 1.953zm221.955-133.179c-4.143 0-7.5 3.358-7.5 7.5v14.738c0 4.142 3.357 7.5 7.5 7.5s7.5-3.358 7.5-7.5v-14.738c0-4.143-3.357-7.5-7.5-7.5zm163.422 320.248-31.36-132.39c-5.238-22.109-22.904-39.555-45.011-44.445l-23.71-5.236c6.872-8.96 10.753-20.061 10.753-31.6v-112.66c.002-61.645-49.72-111.27-110.75-111.27-61.073 0-110.76 49.916-110.76 111.27v112.66c0 11.539 3.881 22.64 10.753 31.601l-23.713 5.236c-22.097 4.888-39.76 22.333-44.998 44.443l-31.37 132.39c-3.684 14.899 1.341 30.71 17.979 35.713l41.795 12.75v8.436c0 9.649 7.308 17.5 16.292 17.5h248.035c8.983 0 16.292-7.851 16.292-17.5v-8.437l41.799-12.751c15.917-4.796 21.668-20.808 17.974-35.71zm-160.727-181.917c-10.655 9.888-24.543 15.407-39.356 15.407s-28.701-5.519-39.356-15.407c6.665-4.537 10.981-12.202 10.981-20.603v-4.862c8.863 3.228 18.417 4.995 28.375 4.995s19.512-1.767 28.375-4.995v4.861c0 8.402 4.316 16.066 10.981 20.604zm-39.356-35.47c-37.762 0-68.483-30.895-68.483-68.869v-41.456c24.284-1.4 47.849-8.031 68.571-19.342 8.78-4.793 17.149-10.459 24.935-16.877 5 7.676 11.123 14.465 18.249 20.229 7.606 6.152 16.067 10.918 25.213 14.208v43.239c-.001 37.973-30.722 68.868-68.485 68.868zm43.375 2.764c24.032-14.741 40.109-41.335 40.109-71.633v-5.141c4.178.161 8.616-.576 12.271-2.268v79.993c0 10.722-4.713 20.905-12.729 27.852l-31.954-7.056c-4.46-.984-7.696-5.041-7.696-9.646v-12.101zm40.109-91.773v-21.05c6.338-.797 12.268 3.98 12.268 10.57 0 6.416-5.91 11.308-12.268 10.48zm-83.479-116.205c46.57 0 88.046 35.424 94.708 81.975-4.837-2.021-12.221-2.026-17.581-1.821-8.94-2.706-17.158-7.039-24.427-12.918-6.94-5.614-12.733-12.406-17.22-20.189-1.646-2.854-4.45-4.799-7.695-5.337-3.24-.538-6.515.396-8.985 2.562-7.977 6.988-16.691 13.081-25.903 18.109-20.68 11.288-44.529 17.434-68.97 17.773-6.028.084-13.207-.36-18.628 1.816 6.89-46.325 46.731-81.97 94.701-81.97zm-83.488 95.154v21.05c-6.384.788-12.268-3.969-12.268-10.571 0-6.481 5.959-11.26 12.268-10.479zm-12.272 33.784c4.076 1.893 7.731 2.334 12.272 2.266v5.141c0 30.298 16.077 56.892 40.108 71.633v12.102c0 4.605-3.236 8.662-7.697 9.646l-31.954 7.056c-8.016-6.947-12.729-17.129-12.729-27.852zm-39.535 327.974-42.432-12.944c-6.354-1.937-10.087-8.641-8.559-15.047 1.589-6.656 8.438-10.966 15.089-9.33l30.882 7.436v6.031c0 8.183 2.911 15.699 7.752 21.567-.986.656-1.899 1.428-2.732 2.287zm260.599 22.588c0 1.556-.897 2.5-1.292 2.5h-248.034c-.395 0-1.292-.944-1.292-2.5v-10c0-1.556.897-2.5 1.292-2.5h248.035c.395 0 1.292.944 1.292 2.5v10zm-105.309-184.807h86.367c10.445 0 18.942 8.497 18.942 18.942v119.423c0 10.444-8.497 18.942-18.942 18.942h-212.734c-10.445 0-18.942-8.498-18.942-18.942v-119.423c0-10.445 8.497-18.942 18.942-18.942h91.367c4.143 0 7.5-3.358 7.5-7.5s-3.357-7.5-7.5-7.5h-91.367c-18.716 0-33.942 15.226-33.942 33.942v97.964l-27.364-6.589c-4.284-1.036-8.656-1.021-12.823-.018l26.378-111.323c3.92-16.549 17.125-29.603 33.639-33.255l65.401-14.442c13.92 16.021 33.73 25.119 55.077 25.119s41.157-9.098 55.078-25.119c0 0 65.262 14.411 65.397 14.44 16.522 3.655 29.731 16.709 33.652 33.256l26.37 111.323c-4.166-1.002-8.536-1.017-12.818.017l-27.369 6.59v-97.964c0-18.716-15.227-33.942-33.942-33.942h-86.367c-4.143 0-7.5 3.358-7.5 7.5s3.357 7.501 7.5 7.501zm157.726 149.273-42.436 12.946c-.833-.859-1.746-1.63-2.733-2.287 4.841-5.868 7.752-13.384 7.752-21.567v-6.031l30.887-7.438c7.699-1.917 15.438 4.283 15.438 12.31.001 5.501-3.664 10.464-8.908 12.067zm-213.799-67.128c0 19.971 16.183 36.218 36.073 36.218s36.073-16.247 36.073-36.218-16.183-36.218-36.073-36.218-36.073 16.247-36.073 36.218zm57.146 0c0 11.7-9.453 21.218-21.073 21.218s-21.073-9.518-21.073-21.218 9.453-21.218 21.073-21.218 21.073 9.518 21.073 21.218zm-57.733-274.485c-4.143 0-7.5 3.358-7.5 7.5v14.738c0 4.142 3.357 7.5 7.5 7.5s7.5-3.358 7.5-7.5v-14.738c0-4.143-3.358-7.5-7.5-7.5zm47.703 66.316c-2.37 1.307-6.195 2.849-11.043 2.849-.079 0-.159 0-.239-.001-4.75-.05-8.497-1.577-10.804-2.848-3.628-2.001-8.189-.68-10.189 2.947-1.999 3.627-.68 8.189 2.947 10.189 5.473 3.016 11.657 4.646 17.888 4.711 7.95.083 14.758-2.548 18.683-4.711 3.627-2 4.946-6.561 2.947-10.188-2.002-3.628-6.561-4.948-10.19-2.948z"/></g></svg>