<svg id="Twotone" height="512" viewBox="0 0 64 64" width="512" xmlns="http://www.w3.org/2000/svg"><g id="Color_copy" data-name="Color copy"><path d="m23 34h2a0 0 0 0 1 0 0v12a0 0 0 0 1 0 0h-10a0 0 0 0 1 0 0v-4a8 8 0 0 1 8-8z" fill="#a8dba8"/><path d="m39 34h2a8 8 0 0 1 8 8v4a0 0 0 0 1 0 0h-10a0 0 0 0 1 0 0v-12a0 0 0 0 1 0 0z" fill="#a8dba8"/><path d="m47 41h-4a4 4 0 0 1 -4-4v-9h-14v9a4 4 0 0 1 -4 4h-4a12 12 0 0 0 -12 12v8h54v-8a12 12 0 0 0 -12-12z" fill="#79bd9a"/><rect fill="#79bd9a" height="34" rx="13" width="26" x="19" y="3"/><path d="m37 31h5v4h-5z" fill="#fff"/><path d="m41 31v1a1 1 0 0 1 -2 0v-1h-2v4h5v-4z" fill="#cff09e"/><path d="m22 30h6v6h-6z" fill="#fff"/><path d="m25.812 30a5.95 5.95 0 0 0 -.812 3 6.057 6.057 0 0 0 .065.836 2.989 2.989 0 0 1 -2.065-2.836v-1h-1v6h6v-6z" fill="#cff09e"/><circle cx="32" cy="33" fill="#fff" r="6"/><circle cx="32" cy="33" fill="#a8dba8" r="2"/><path d="m15 29a2 2 0 0 1 2-2h2.362a13.015 13.015 0 0 1 -.362-3v-1h-2a6 6 0 0 0 0 12h5v-4h-5a2 2 0 0 1 -2-2z" fill="#fff"/><path d="m42 30h4v6h-4z" fill="#fff"/><g fill="#cff09e"><path d="m15 29a2 2 0 0 1 2-2h2.362a13.015 13.015 0 0 1 -.362-3v-1h-2a5.974 5.974 0 0 0 -1.979.341 4.428 4.428 0 0 1 -.851 2.1 5.988 5.988 0 0 0 -.342 6.594 4.1 4.1 0 0 1 .572 2.365 5.957 5.957 0 0 0 2.6.6h5v-4h-5a2 2 0 0 1 -2-2z"/><path d="m34 37a5.992 5.992 0 0 1 -5.119-9.119 6 6 0 1 0 8.238 8.238 5.968 5.968 0 0 1 -3.119.881z"/><path d="m46 35v1h-4v-6h2v3a2.006 2.006 0 0 0 2 2z"/><path d="m51 41.69v19.31h-6v-20h2a11.8 11.8 0 0 1 4 .69z"/><path d="m19 41v20h-6v-19.31a11.8 11.8 0 0 1 4-.69z"/></g><path d="m44 23h-5.048a5.566 5.566 0 0 1 -3.476-1.219 5.564 5.564 0 0 0 -6.952 0 5.563 5.563 0 0 1 -3.476 1.219h-5.048a3 3 0 0 1 -3-3v-6a3 3 0 0 1 3-3h24a3 3 0 0 1 3 3v6a3 3 0 0 1 -3 3z" fill="#a8dba8"/><path d="m34.94 21.41a5.483 5.483 0 0 0 -2.94-.85 5.591 5.591 0 0 0 -3.48 1.22 5.451 5.451 0 0 1 -1.44.83l-9.82-9.82a2.974 2.974 0 0 1 2.74-1.79h4.53z" fill="#fff"/><path d="m46.96 20.43a2.97 2.97 0 0 1 -2.53 2.53l-11.96-11.96h5.06z" fill="#fff"/><path d="m34.94 21.41a5.483 5.483 0 0 0 -2.94-.85 5.591 5.591 0 0 0 -3.48 1.22 5.451 5.451 0 0 1 -1.44.83l-2.63-2.63c.2.01.4.02.6.02a5.538 5.538 0 0 0 3.47-1.22 5.523 5.523 0 0 1 2.64-1.15z" fill="#cff09e"/><path d="m46.96 20.43a2.97 2.97 0 0 1 -2.53 2.53l-2.96-2.96h2.53a2.976 2.976 0 0 0 1.87-.66z" fill="#cff09e"/><path d="m19 46h26v4h-26z" fill="#a8dba8"/></g><g id="Stroke_Close_copy" data-name="Stroke Close copy"><path d="m49.838 40.322a8.9 8.9 0 0 0 -2.838-5.01v-5.312a1 1 0 0 0 -1-1h-.931a13.811 13.811 0 0 0 .931-5v-.556a3.987 3.987 0 0 0 2-3.444v-6a4 4 0 0 0 -3.33-3.932 13.983 13.983 0 0 0 -25.341 0 4 4 0 0 0 -3.329 3.932v6a3.959 3.959 0 0 0 .568 2.022 6.994 6.994 0 0 0 -.227 13.945 8.967 8.967 0 0 0 -2.169 4.352 13.016 13.016 0 0 0 -10.172 12.681v8a1 1 0 0 0 2 0v-8a11 11 0 0 1 6-9.786v5.786a3 3 0 0 0 -3 3v2a3 3 0 0 0 3 3v4a1 1 0 0 0 2 0v-4h4v4a1 1 0 0 0 2 0v-4a3 3 0 0 0 3-3v-2a2.966 2.966 0 0 0 -.184-1h8.184v10a1 1 0 0 0 2 0v-10h8.184a2.966 2.966 0 0 0 -.184 1v2a3 3 0 0 0 3 3v4a1 1 0 0 0 2 0v-4h4v4a1 1 0 0 0 2 0v-4a3 3 0 0 0 3-3v-2a3 3 0 0 0 -3-3v-5.786a11 11 0 0 1 6 9.786v8a1 1 0 0 0 2 0v-8a13.016 13.016 0 0 0 -10.162-12.678zm-2.122-.286c-.239-.013-.474-.036-.716-.036h-4a3 3 0 0 1 -3-3v-1h1a1 1 0 0 0 1 1h3.893a6.916 6.916 0 0 1 1.823 3.036zm-3.716 4.964h-11v-5.08a7.005 7.005 0 0 0 5-3.333v.413a5.006 5.006 0 0 0 5 5h1zm-24-3h1a5.006 5.006 0 0 0 5-5h.264a7 7 0 0 0 4.736 2.92v5.08h-11zm21-8h-2.08a6.29 6.29 0 0 0 0-2h2.08zm-11.816 0a3 3 0 0 0 1.816 1.816v2.084a5.016 5.016 0 0 1 -3.9-3.9zm2.816-2a1 1 0 1 1 -1 1 1 1 0 0 1 1-1zm1 3.816a3 3 0 0 0 1.816-1.816h2.084a5.016 5.016 0 0 1 -3.9 3.9zm1.816-3.816a3 3 0 0 0 -1.816-1.816v-2.084a5.016 5.016 0 0 1 3.9 3.9zm-3.816-1.816a3 3 0 0 0 -1.816 1.816h-2.084a5.016 5.016 0 0 1 3.9-3.9zm-5.7 4.816h-2.3v-4h2.3a6.927 6.927 0 0 0 0 4zm17.7-4h2v4h-2zm-.12-2h-.88a1 1 0 0 0 -1 1h-2.685a6.984 6.984 0 0 0 -12.051-1h-4.264a.984.984 0 0 0 -.739.341 11.961 11.961 0 0 1 -1.261-5.341h5.048a6.584 6.584 0 0 0 4.1-1.438 4.537 4.537 0 0 1 5.7 0 6.593 6.593 0 0 0 4.104 1.438h5.048a11.82 11.82 0 0 1 -1.12 5zm-24.88-14.056 7.055 7.056h-5.055a2 2 0 0 1 -2-2zm1.358 15.056h-2.358a1 1 0 0 1 0-2h1.586a13.9 13.9 0 0 0 .772 2zm17.758-18 8.739 8.739a2.012 2.012 0 0 1 -1.116 1.116l-9.855-9.855zm-5.06 0 10 10h-3.1a4.573 4.573 0 0 1 -2.856-1c-.152-.121-.317-.212-.475-.317l-8.681-8.683zm13.944 2v4.056l-6.056-6.056h4.056a2 2 0 0 1 2 2zm-14-10a11.961 11.961 0 0 1 10.386 6h-20.772a11.962 11.962 0 0 1 10.386-6zm-12 8h4.116l7.578 7.577a6.539 6.539 0 0 0 -3.794 1.423 4.57 4.57 0 0 1 -.608.407l-8.758-8.757a1.989 1.989 0 0 1 1.466-.65zm-8 17a5.006 5.006 0 0 1 5-5h1a14.014 14.014 0 0 0 .144 2h-1.144a3 3 0 0 0 0 6h4v2h-4a5.006 5.006 0 0 1 -5-5zm7.418 7h1.582a1 1 0 0 0 1 1h2a3 3 0 0 1 -3 3h-4c-.238 0-.471.023-.706.036a6.988 6.988 0 0 1 3.124-4.036zm-8.418 18v-2a1 1 0 0 1 1-1v4a1 1 0 0 1 -1-1zm7 1h-4v-12.574a10.966 10.966 0 0 1 3-.426h1zm3-3v2a1 1 0 0 1 -1 1v-4a1 1 0 0 1 1 1zm-1-3v-2h11v2zm13-2h11v2h-11zm10 7v-2a1 1 0 0 1 1-1v4a1 1 0 0 1 -1-1zm10-2v2a1 1 0 0 1 -1 1v-4a1 1 0 0 1 1 1zm-7-10h1a10.966 10.966 0 0 1 3 .426v12.574h-4z" fill="#3b8686"/></g></svg>