<svg id="Twotone" height="512" viewBox="0 0 64 64" width="512" xmlns="http://www.w3.org/2000/svg"><g id="Color_copy" data-name="Color copy"><path d="m28.56 12.646a6.978 6.978 0 0 0 -2.538 8.581l.56 1.293a1 1 0 0 0 1.9-.233 7.835 7.835 0 0 1 4.082-5.647l.983-.517z" fill="#a8dba8"/><path d="m52.681 32.9a47.7 47.7 0 0 0 -8.228-23.948l-.019-.024a7.638 7.638 0 0 1 5.566-4.614l-2-.751a8.827 8.827 0 0 0 -8.656 1.411 10.414 10.414 0 0 0 -3.588-.647 28.629 28.629 0 0 0 -14.956.562 4.389 4.389 0 0 0 -3.08 4.189 4.926 4.926 0 0 1 -3.574 4.737l-2.982.852a1.606 1.606 0 0 0 .615 3.14l10.03-1.088a22.872 22.872 0 0 1 13.491 2.824 27.871 27.871 0 0 1 12.974 16.1 6.384 6.384 0 0 0 -3.446 7.844l.172.513 2.255-1.611a5.384 5.384 0 0 1 7.745 1.611l.363-1.272a9.833 9.833 0 0 0 -2.682-9.828z" fill="#fff"/><path d="m55.36 42.73-.36 1.27a5.38 5.38 0 0 0 -7.74-1.61l-2.26 1.61-.17-.52a6.376 6.376 0 0 1 3.44-7.84 27.881 27.881 0 0 0 -12.97-16.1 22.9 22.9 0 0 0 -13.49-2.82l-10.03 1.09a1.606 1.606 0 0 1 -.62-3.14l2.99-.85a4.938 4.938 0 0 0 3.57-4.74 4.39 4.39 0 0 1 3.08-4.19 28.754 28.754 0 0 1 3.41-.84 12.329 12.329 0 0 0 6.7 4.96 26.781 26.781 0 0 1 17.15 16.38 13.03 13.03 0 0 0 4.5 5.92q.075.8.12 1.59a9.81 9.81 0 0 1 2.68 9.83z" fill="#cff09e"/><path d="m61 45.29v10.71h-58v-10.71a6.988 6.988 0 0 0 11-1.29 6.994 6.994 0 0 0 12 0 6.994 6.994 0 0 0 12 0 6.994 6.994 0 0 0 12 0 6.988 6.988 0 0 0 11 1.29z" fill="#cff09e"/><path d="m61 50.29v10.71h-58v-10.71a6.988 6.988 0 0 0 11-1.29 6.994 6.994 0 0 0 12 0 6.994 6.994 0 0 0 12 0 6.994 6.994 0 0 0 12 0 6.988 6.988 0 0 0 11 1.29z" fill="#a8dba8"/><path d="m61 55.29v5.71h-58v-5.71a5.9 5.9 0 0 0 .79.71 6.981 6.981 0 0 0 10.21-2 6.981 6.981 0 0 0 12 0 6.981 6.981 0 0 0 12 0 6.981 6.981 0 0 0 12 0 7.007 7.007 0 0 0 10.21 2 5.9 5.9 0 0 0 .79-.71z" fill="#79bd9a"/><path d="m30.1 14.807a6.975 6.975 0 0 0 .841 8.908l1 .992a1 1 0 0 0 1.68-.926 7.833 7.833 0 0 1 1.679-6.761l.72-.846.98-1.174-5-3z" fill="#cff09e"/></g><g id="Stroke_Close_copy" fill="#3b8686" data-name="Stroke Close copy"><path d="m11.886 18.8 10.022-1.087a21.514 21.514 0 0 1 2.6-.084 7.848 7.848 0 0 0 .594 3.994l.56 1.294a1.985 1.985 0 0 0 1.829 1.205 2.109 2.109 0 0 0 .25-.015 1.975 1.975 0 0 0 1.455-.952 7.966 7.966 0 0 0 1.035 1.27l1 .991a2 2 0 0 0 3.369-1.85 6.847 6.847 0 0 1 .078-3.221c.045.025.091.045.136.07a26.747 26.747 0 0 1 12.253 14.73 7.356 7.356 0 0 0 -3.188 8.655l.173.518a1 1 0 0 0 1.529.5l2.255-1.61a4.383 4.383 0 0 1 6.307 1.312 1 1 0 0 0 .857.48.972.972 0 0 0 .131-.009 1 1 0 0 0 .831-.717l.363-1.274a10.8 10.8 0 0 0 -2.672-10.552 48.637 48.637 0 0 0 -8.077-23.616 6.613 6.613 0 0 1 4.624-3.532 1 1 0 0 0 .156-1.917l-2.006-.752a9.877 9.877 0 0 0 -9.19 1.23 11.318 11.318 0 0 0 -3.29-.528 29.658 29.658 0 0 0 -15.37.602 5.36 5.36 0 0 0 -3.78 5.143 3.944 3.944 0 0 1 -2.848 3.776l-2.983.852a2.605 2.605 0 0 0 1 5.095zm15.614 3.323-.56-1.293a5.871 5.871 0 0 1 -.43-3.067c.469.053.935.123 1.4.207a7.978 7.978 0 0 0 .114 2.349 8.8 8.8 0 0 0 -.524 1.804zm-16.062-6.5 2.983-.851a5.953 5.953 0 0 0 4.3-5.7 3.37 3.37 0 0 1 2.379-3.228 27.657 27.657 0 0 1 14.426-.544 1.07 1.07 0 0 0 .225.025 9.4 9.4 0 0 1 3.244.586 1 1 0 0 0 .974-.162 7.863 7.863 0 0 1 7.191-1.414 8.653 8.653 0 0 0 -3.651 4.216 1.05 1.05 0 0 0 .118.966 46.726 46.726 0 0 1 8.056 23.442 1 1 0 0 0 .309.663 8.807 8.807 0 0 1 2.544 8.3 6.377 6.377 0 0 0 -7.862-.347l-1.1.785a5.361 5.361 0 0 1 3.109-5.81 1 1 0 0 0 .546-1.207 28.748 28.748 0 0 0 -13.441-16.672c-.1-.059-.215-.109-.321-.165a6.785 6.785 0 0 1 .6-.838l.72-.846a1 1 0 0 0 -1.523-1.3l-.72.846a8.885 8.885 0 0 0 -1.902 7.632l-1-.991a5.97 5.97 0 0 1 -.721-7.632 1 1 0 1 0 -1.649-1.133 8.015 8.015 0 0 0 -.914 1.779 23.835 23.835 0 0 0 -6.656-.294l-2.124.231 3.893-2.073a1 1 0 1 0 -.94-1.766l-8.3 4.418-2.562.278a.592.592 0 0 1 -.47-.151.6.6 0 0 1 -.2-.451.611.611 0 0 1 .439-.587z"/><path d="m8 48.4a7.926 7.926 0 0 0 6-2.71 8 8 0 0 0 12 0 8 8 0 0 0 12 0 8 8 0 0 0 12 0 7.988 7.988 0 0 0 11.72.294 1 1 0 0 0 -1.44-1.384 5.89 5.89 0 0 1 -4.28 1.8 5.963 5.963 0 0 1 -5.144-2.916 1.038 1.038 0 0 0 -1.712 0 6 6 0 0 1 -10.288 0 1.038 1.038 0 0 0 -1.712 0 6 6 0 0 1 -10.288 0 1.038 1.038 0 0 0 -1.712 0 6 6 0 0 1 -10.288 0 1.038 1.038 0 0 0 -1.712 0 5.963 5.963 0 0 1 -5.144 2.916 5.89 5.89 0 0 1 -4.28-1.8 1 1 0 1 0 -1.44 1.388 7.871 7.871 0 0 0 5.72 2.412z"/><path d="m60.28 49.6a5.89 5.89 0 0 1 -4.28 1.8 5.963 5.963 0 0 1 -5.144-2.916 1.038 1.038 0 0 0 -1.712 0 6 6 0 0 1 -10.288 0 1.038 1.038 0 0 0 -1.712 0 6 6 0 0 1 -10.288 0 1.038 1.038 0 0 0 -1.712 0 6 6 0 0 1 -10.288 0 1.038 1.038 0 0 0 -1.712 0 5.963 5.963 0 0 1 -5.144 2.916 5.89 5.89 0 0 1 -4.28-1.8 1 1 0 1 0 -1.44 1.388 7.988 7.988 0 0 0 11.72-.298 8 8 0 0 0 12 0 8 8 0 0 0 12 0 8 8 0 0 0 12 0 7.988 7.988 0 0 0 11.72.294 1 1 0 0 0 -1.44-1.384z"/><path d="m60.266 54.611a4.825 4.825 0 0 1 -.656.589 5.983 5.983 0 0 1 -8.755-1.718 1.039 1.039 0 0 0 -1.71 0 5.983 5.983 0 0 1 -10.29 0 1.039 1.039 0 0 0 -1.71 0 5.983 5.983 0 0 1 -10.29 0 1.039 1.039 0 0 0 -1.71 0 5.983 5.983 0 0 1 -10.29 0 1.039 1.039 0 0 0 -1.71 0 5.982 5.982 0 0 1 -8.755 1.718 4.825 4.825 0 0 1 -.656-.589 1 1 0 0 0 -1.468 1.358 6.864 6.864 0 0 0 .924.831 8.031 8.031 0 0 0 9.622 0 7.774 7.774 0 0 0 1.188-1.109 7.845 7.845 0 0 0 1.19 1.109 8.031 8.031 0 0 0 9.622 0 7.774 7.774 0 0 0 1.188-1.109 7.845 7.845 0 0 0 1.19 1.109 8.031 8.031 0 0 0 9.622 0 7.774 7.774 0 0 0 1.188-1.109 7.845 7.845 0 0 0 1.19 1.109 8.031 8.031 0 0 0 9.622 0 7.774 7.774 0 0 0 1.188-1.109 7.845 7.845 0 0 0 1.19 1.109 8.03 8.03 0 0 0 9.62 0 6.864 6.864 0 0 0 .924-.831 1 1 0 0 0 -1.468-1.358z"/><circle cx="24" cy="8" r="1"/><path d="m39.052 40.316a1 1 0 1 0 1.9-.632l-.763-2.292a12.374 12.374 0 0 0 -10.047-8.382 1 1 0 0 0 -.284 1.98 10.387 10.387 0 0 1 8.43 7.034z"/><path d="m34.542 40.616.626.939a1 1 0 1 0 1.664-1.11l-.626-.939a10.422 10.422 0 0 0 -10.37-4.492 1 1 0 1 0 .328 1.972 8.42 8.42 0 0 1 8.378 3.63z"/><path d="m56 31a1 1 0 0 0 2 0v-1.528a6.2 6.2 0 0 1 3.447-5.572 1 1 0 1 0 -.894-1.79 8.192 8.192 0 0 0 -4.553 7.362z"/><circle cx="25" cy="30" r="1"/><circle cx="20" cy="42" r="1"/><circle cx="42" cy="32" r="1"/><circle cx="22" cy="37" r="1"/><circle cx="30" cy="41" r="1"/><circle cx="60" cy="35" r="1"/><circle cx="56" cy="20" r="1"/></g></svg>