<svg id="Twotone" height="512" viewBox="0 0 64 64" width="512" xmlns="http://www.w3.org/2000/svg"><g id="Color_copy" data-name="Color copy"><path d="m56.628 33.426a14.872 14.872 0 0 0 0-21.064 14.951 14.951 0 0 0 -21.11 0l-3.518 3.511-3.518-3.511a14.951 14.951 0 0 0 -21.11 0 14.872 14.872 0 0 0 0 21.064l24.628 24.574z" fill="#a8dba8"/><path d="m54.05 36-.94.94-21.11 21.06-21.11-21.06-1.05-1.05a3.155 3.155 0 0 0 2.31-3.32 13.989 13.989 0 0 1 22.2-12.3l-3.41.33a10.426 10.426 0 0 0 -9.38 9.48c-.01.16-.02.31-.02.47a5.456 5.456 0 0 0 5.45 5.45h.45a1.926 1.926 0 0 0 1.79-1.34 3.976 3.976 0 0 1 5.77-2.11.138.138 0 0 1 -.04.03 1.861 1.861 0 0 0 1.03 3.42h.45a1.926 1.926 0 0 0 1.79-1.34 3.976 3.976 0 0 1 5.77-2.11.138.138 0 0 1 -.04.03 1.861 1.861 0 0 0 1.03 3.42h.45a1.926 1.926 0 0 0 1.79-1.34 3.976 3.976 0 0 1 5.77-2.11.138.138 0 0 1 -.04.03 1.861 1.861 0 0 0 1.03 3.42z" fill="#fff"/><path d="m23.461 36.495a32.6 32.6 0 0 1 -8.218-13.74 14.04 14.04 0 0 0 -3.093 9.815 3.155 3.155 0 0 1 -2.31 3.32l1.05 1.05 21.11 21.06 18.228-18.185a21.988 21.988 0 0 1 -26.767-3.32z" fill="#cff09e"/><path d="m48.956 41h-.024a1.276 1.276 0 0 1 -.95-2.2l.018-.021a2.983 2.983 0 0 0 -4.59.707 2.879 2.879 0 0 1 -2.454 1.514h-.024a1.276 1.276 0 0 1 -.95-2.2l.018-.021a2.983 2.983 0 0 0 -4.59.707 2.879 2.879 0 0 1 -2.454 1.514h-.024a1.276 1.276 0 0 1 -.95-2.2l.018-.021a2.983 2.983 0 0 0 -4.59.707 2.879 2.879 0 0 1 -2.454 1.514 1.285 1.285 0 0 1 -.956-2.221 2.983 2.983 0 0 0 -4.59.707 2.887 2.887 0 0 1 -2.41 1.514h-2.037l16.037 16h2l16.046-16.009c-.03.001-.059.009-.09.009z" fill="#a8dba8"/><path d="m44.241 45.786a1.746 1.746 0 0 1 .719-2.206.138.138 0 0 0 .04-.03 3.976 3.976 0 0 0 -5.77 2.11 1.926 1.926 0 0 1 -1.79 1.34h-.45a1.861 1.861 0 0 1 -1.03-3.42.138.138 0 0 0 .04-.03 3.976 3.976 0 0 0 -5.77 2.11 1.926 1.926 0 0 1 -1.79 1.34h-.45a1.861 1.861 0 0 1 -1.03-3.42.138.138 0 0 0 .04-.03 3.976 3.976 0 0 0 -5.77 2.11 2.105 2.105 0 0 1 -.661.934l10.431 10.406h2z" fill="#79bd9a"/><path d="m35.96 50.58a.138.138 0 0 0 .04-.03 3.976 3.976 0 0 0 -5.77 2.11 1.926 1.926 0 0 1 -1.79 1.34h-.449l4.009 4 4.19-4.181a1.848 1.848 0 0 1 -.23-3.239z" fill="#a8dba8"/><g fill="#cff09e"><path d="m24.54 23.64a10.383 10.383 0 0 1 6.4-3.04l3.41-.33.093.1a5.638 5.638 0 0 1 1.557 3.887 1.744 1.744 0 0 1 -1.743 1.743 1.742 1.742 0 0 1 -1.657-1.192.789.789 0 0 0 -1.455-.1l-.54 1.078a.789.789 0 0 1 -1.363.085l-.35-.525a.789.789 0 0 0 -1.405.188l-.007.02a.79.79 0 0 1 -1.386.216z"/><circle cx="46" cy="21" r="2"/></g></g><g id="Stroke_Close_copy" fill="#3b8686" data-name="Stroke Close copy"><path d="m57.334 11.654a15.97 15.97 0 0 0 -22.522 0l-2.812 2.806-2.813-2.806a15.968 15.968 0 0 0 -22.521 0 15.871 15.871 0 0 0 0 22.48l24.628 24.574a1 1 0 0 0 1.412 0l24.628-24.574a15.871 15.871 0 0 0 0-22.48zm-36.45 8.021a13.009 13.009 0 0 1 10.2-.093l-.238.022a11.426 11.426 0 0 0 -10.286 10.442c-.01.171-.02.332-.02.5a6.458 6.458 0 0 0 6.45 6.454h.45a2.919 2.919 0 0 0 2.733-2.005 3.016 3.016 0 0 1 3.132-1.979 2.8 2.8 0 0 0 -.1 1.835 2.872 2.872 0 0 0 2.785 2.149h.45a2.919 2.919 0 0 0 2.733-2.005 3.015 3.015 0 0 1 3.132-1.979 2.8 2.8 0 0 0 -.1 1.835 2.872 2.872 0 0 0 2.785 2.149h.45a2.919 2.919 0 0 0 2.733-2.005 3.018 3.018 0 0 1 3.132-1.979 2.8 2.8 0 0 0 -.1 1.835 2.9 2.9 0 0 0 1.028 1.549l-3.541 3.534a.3.3 0 0 1 -.106-.131.231.231 0 0 1 .081-.278 1 1 0 0 0 0-1.488 3.985 3.985 0 0 0 -6.123.945 1.9 1.9 0 0 1 -1.612 1.018.33.33 0 0 1 -.346-.2.231.231 0 0 1 .081-.278 1 1 0 0 0 0-1.488 3.985 3.985 0 0 0 -6.123.945 1.9 1.9 0 0 1 -1.612 1.021.33.33 0 0 1 -.346-.2.231.231 0 0 1 .081-.278 1 1 0 0 0 0-1.488 3.985 3.985 0 0 0 -6.123.945 1.893 1.893 0 0 1 -1.59 1.021.337.337 0 0 1 -.352-.2.233.233 0 0 1 .07-.276 1 1 0 0 0 0-1.484 3.984 3.984 0 0 0 -6.123.946 1.876 1.876 0 0 1 -1.567 1.014c-.021 0-.044 0-.065 0h-1.541l-3.855-3.847a4.216 4.216 0 0 0 1.626-3.653 13.027 13.027 0 0 1 7.737-12.825zm13.038 1.641a4.594 4.594 0 0 1 1.078 2.94.744.744 0 0 1 -1.449.236 1.79 1.79 0 0 0 -3.3-.235l-.377.754-.148-.223a1.788 1.788 0 0 0 -3.037.1l-.817-1.116a9.416 9.416 0 0 1 5.165-2.172zm11.8 21.577a1.025 1.025 0 0 0 -.226-.21 4.977 4.977 0 0 0 -7.21 2.639.937.937 0 0 1 -.846.678h-.45a.872.872 0 0 1 -.856-.677.727.727 0 0 1 .273-.848 1.314 1.314 0 0 0 .318-.236 1 1 0 0 0 -.226-1.556 4.977 4.977 0 0 0 -7.21 2.639.937.937 0 0 1 -.849.678h-.45a.872.872 0 0 1 -.856-.677.727.727 0 0 1 .273-.848 1.314 1.314 0 0 0 .318-.236 1 1 0 0 0 -.226-1.556 4.958 4.958 0 0 0 -7.08 2.349l-3.071-3.065a3.909 3.909 0 0 0 2.923-1.975 2.032 2.032 0 0 1 2.391-.874 2.24 2.24 0 0 0 .074 1.4 2.347 2.347 0 0 0 2.22 1.482 3.864 3.864 0 0 0 3.315-2.008 2.036 2.036 0 0 1 2.379-.879 2.231 2.231 0 0 0 .07 1.409 2.347 2.347 0 0 0 2.236 1.478 3.864 3.864 0 0 0 3.315-2.008 2.036 2.036 0 0 1 2.379-.879 2.231 2.231 0 0 0 .07 1.409 2.347 2.347 0 0 0 2.236 1.478 3.864 3.864 0 0 0 3.315-2.008 2.036 2.036 0 0 1 2.379-.879 2.153 2.153 0 0 0 .641 2.217zm-9.549 9.528a.944.944 0 0 1 -.074-.31.675.675 0 0 1 .3-.636 1.314 1.314 0 0 0 .318-.236 1 1 0 0 0 -.226-1.556 4.977 4.977 0 0 0 -7.21 2.639.937.937 0 0 1 -.841.678h-.035l-6.5-6.488a3.133 3.133 0 0 0 .27-.517 3.017 3.017 0 0 1 3.132-1.979 2.8 2.8 0 0 0 -.1 1.835 2.872 2.872 0 0 0 2.783 2.149h.45a2.919 2.919 0 0 0 2.733-2 3.016 3.016 0 0 1 3.132-1.979 2.8 2.8 0 0 0 -.1 1.835 2.872 2.872 0 0 0 2.785 2.144h.45a2.919 2.919 0 0 0 2.733-2 3.014 3.014 0 0 1 3.139-1.978 2.761 2.761 0 0 0 -.173 1.455zm-4.173 4.166-2.046-2.041a3.07 3.07 0 0 0 1.219-1.546 3.024 3.024 0 0 1 3.136-1.978 2.74 2.74 0 0 0 -.2 1.187 2.962 2.962 0 0 0 .63 1.656zm23.922-23.869-2.233 2.228a.9.9 0 0 1 -.555-.623.727.727 0 0 1 .273-.848 1.314 1.314 0 0 0 .318-.236 1 1 0 0 0 -.226-1.556 4.977 4.977 0 0 0 -7.21 2.639.937.937 0 0 1 -.849.678h-.45a.872.872 0 0 1 -.856-.677.727.727 0 0 1 .273-.848 1.314 1.314 0 0 0 .318-.236 1 1 0 0 0 -.226-1.556 4.977 4.977 0 0 0 -7.21 2.639.937.937 0 0 1 -.849.678h-.45a.872.872 0 0 1 -.856-.677.727.727 0 0 1 .273-.848 1.314 1.314 0 0 0 .318-.236 1 1 0 0 0 -.226-1.556 4.977 4.977 0 0 0 -7.21 2.639.937.937 0 0 1 -.849.678h-.45a4.455 4.455 0 0 1 -4.45-4.45c0-.13.008-.252.016-.382a9.468 9.468 0 0 1 1.919-4.924l.815 1.113a1.786 1.786 0 0 0 2.982-.146l.141.213a1.773 1.773 0 0 0 1.485.8h.116a1.771 1.771 0 0 0 1.486-.994l.337-.674a2.744 2.744 0 0 0 5.16-1.3 6.6 6.6 0 0 0 -1.834-4.579l-.093-.1-.008.008a1.024 1.024 0 0 0 -.128-.127 14.988 14.988 0 0 0 -23.782 13.181 2.193 2.193 0 0 1 -1.071 2.078l-2-2a13.911 13.911 0 0 1 19.7-19.648l3.519 3.511a1 1 0 0 0 1.412 0l3.519-3.511a13.965 13.965 0 0 1 19.7 0 13.872 13.872 0 0 1 0 19.648z"/><path d="m16.02 35.2a1 1 0 0 0 .98.8.948.948 0 0 0 .2-.02 1 1 0 0 0 .78-1.18l-.123-.615a12.1 12.1 0 0 1 1.043-7.738 1 1 0 1 0 -1.79-.894 14.107 14.107 0 0 0 -1.21 9.029z"/><path d="m46 18a3 3 0 1 0 3 3 3 3 0 0 0 -3-3zm0 4a1 1 0 1 1 1-1 1 1 0 0 1 -1 1z"/><circle cx="46" cy="15" r="1"/><circle cx="46" cy="27" r="1"/><circle cx="52" cy="21" r="1"/><circle cx="40" cy="21" r="1"/><path d="m50.95 17.464a1 1 0 1 0 -1.414 0 1 1 0 0 0 1.414 0z"/><path d="m41.05 24.536a1 1 0 1 0 1.414 0 1 1 0 0 0 -1.414 0z"/><path d="m49.536 24.536a1 1 0 1 0 1.414 0 1 1 0 0 0 -1.414 0z"/><path d="m41.05 16.05a1 1 0 1 0 1.414 0 1 1 0 0 0 -1.414 0z"/></g></svg>