<svg id="Twotone" height="512" viewBox="0 0 64 64" width="512" xmlns="http://www.w3.org/2000/svg"><g id="Color_copy" data-name="Color copy"><path d="m51.908 45.477a2.124 2.124 0 0 0 -2.53 1.388l-2.424 7.272a4.186 4.186 0 0 1 -8.154-1.115l-.8-16.022v-6h-12v6l-.8 16.022a4.186 4.186 0 0 1 -8.153 1.115l-2.424-7.272a2.123 2.123 0 0 0 -4.066 1.219l1.86 6.977a8 8 0 0 0 7.729 5.939h1.792a8 8 0 0 0 7.938-7.008l2.124-16.992 2.124 16.992a8 8 0 0 0 7.938 7.008h1.792a8 8 0 0 0 7.73-5.939l1.86-6.977a2.122 2.122 0 0 0 -1.536-2.607z" fill="#79bd9a"/><path d="m22.864 32-7.964 4.425a4.573 4.573 0 0 1 -2.22.575 4.571 4.571 0 0 1 -4.5-3.754l-1-5.516a2.107 2.107 0 0 0 -2.074-1.73 2.106 2.106 0 0 0 -2.106 2.238l.346 5.533a8.776 8.776 0 0 0 8.763 8.229 8.773 8.773 0 0 0 3.376-.675l10.379-4.325z" fill="#79bd9a"/><path d="m41.136 32 7.964 4.425a4.573 4.573 0 0 0 2.22.575 4.571 4.571 0 0 0 4.5-3.754l1-5.516a2.107 2.107 0 0 1 2.074-1.73 2.106 2.106 0 0 1 2.106 2.238l-.346 5.533a8.776 8.776 0 0 1 -8.763 8.229 8.773 8.773 0 0 1 -3.376-.675l-10.379-4.325z" fill="#79bd9a"/><path d="m57 45v1.307a4.693 4.693 0 0 1 -4.693 4.693 4.693 4.693 0 0 1 -4.419-3.114l-1.2-3.352a46.177 46.177 0 0 1 -2.688-15.534 6 6 0 0 0 3-11.19 3.986 3.986 0 0 1 -1.959-3.048 13.115 13.115 0 0 0 -26.09 0 3.986 3.986 0 0 1 -1.951 3.048 6 6 0 0 0 3 11.19 46.177 46.177 0 0 1 -2.691 15.534l-1.2 3.352a4.693 4.693 0 0 1 -4.416 3.114 4.693 4.693 0 0 1 -4.693-4.693v-1.307a2 2 0 0 0 -2-2 2 2 0 0 0 -2 2v1a9 9 0 0 0 9 9h.843a9 9 0 0 0 8.388-5.738l2.594-6.67a8.772 8.772 0 0 1 8.175-5.592 8.772 8.772 0 0 1 8.175 5.592l2.594 6.67a9 9 0 0 0 8.388 5.738h.843a9 9 0 0 0 9-9v-1a2 2 0 0 0 -2-2 2 2 0 0 0 -2 2z" fill="#a8dba8"/><circle cx="44" cy="23" fill="#fff" r="6"/><path d="m49.47 25.47a6 6 0 1 1 -7.94-7.94 6 6 0 0 0 7.94 7.94z" fill="#cff09e"/><circle cx="42" cy="23" fill="#79bd9a" r="3"/><circle cx="43.5" cy="22.5" fill="#fff" r="1.5"/><circle cx="20" cy="23" fill="#fff" r="6"/><circle cx="22" cy="23" fill="#79bd9a" r="3"/><path d="m25.47 25.47a6 6 0 1 1 -7.94-7.94 6 6 0 0 0 7.94 7.94z" fill="#cff09e"/><circle cx="23.5" cy="22.5" fill="#fff" r="1.5"/><ellipse cx="32" cy="30" fill="#79bd9a" rx="2" ry="3"/><g fill="#fff"><circle cx="56" cy="18" r="3"/><circle cx="53" cy="9" r="2"/><circle cx="8" cy="19" r="3"/><circle cx="5" cy="10" r="2"/><circle cx="16" cy="6" r="2"/></g><path d="m58 19a2.96 2.96 0 0 1 -2.86-3.86 2.992 2.992 0 1 0 3.72 3.72 2.983 2.983 0 0 1 -.86.14z" fill="#cff09e"/><path d="m54 10a1.992 1.992 0 0 1 -1.82-2.82 2 2 0 1 0 2.64 2.64 1.99 1.99 0 0 1 -.82.18z" fill="#cff09e"/><path d="m10 20a2.96 2.96 0 0 1 -2.86-3.86 2.992 2.992 0 1 0 3.72 3.72 2.983 2.983 0 0 1 -.86.14z" fill="#cff09e"/><path d="m6 11a1.992 1.992 0 0 1 -1.82-2.82 2 2 0 1 0 2.64 2.64 1.99 1.99 0 0 1 -.82.18z" fill="#cff09e"/><path d="m17 7a1.992 1.992 0 0 1 -1.82-2.82 2 2 0 1 0 2.64 2.64 1.99 1.99 0 0 1 -.82.18z" fill="#cff09e"/></g><g id="Stroke_Close_copy" fill="#3b8686" data-name="Stroke Close copy"><path d="m59 42a3 3 0 0 0 -3 3v1.308a3.68 3.68 0 0 1 -1.9 3.209l.314-1.175a3.125 3.125 0 0 0 -2.261-3.836 3.141 3.141 0 0 0 -3.7 1.989l-.82-2.3c-.294-.823-.555-1.655-.8-2.491l1.3.541a9.776 9.776 0 0 0 13.517-8.414l.346-5.534a3.107 3.107 0 0 0 -6.157-.749l-1 5.516a3.572 3.572 0 0 1 -5.248 2.484l-4.4-2.442c-.1-1.059-.149-2.124-.17-3.192a6.988 6.988 0 0 0 2.479-12.966 2.993 2.993 0 0 1 -1.46-2.288 14.115 14.115 0 0 0 -28.08 0 2.993 2.993 0 0 1 -1.46 2.283 6.988 6.988 0 0 0 2.48 12.974c-.021 1.068-.074 2.133-.17 3.192l-4.395 2.442a3.573 3.573 0 0 1 -5.249-2.484l-1-5.516a3.107 3.107 0 0 0 -6.157.749l.346 5.534a9.776 9.776 0 0 0 13.517 8.414l1.3-.541c-.245.836-.506 1.668-.8 2.491l-.82 2.3a3.136 3.136 0 0 0 -3.7-1.988 3.124 3.124 0 0 0 -2.26 3.835l.308 1.172a3.68 3.68 0 0 1 -1.9-3.209v-1.308a3 3 0 0 0 -6 0v1a10 10 0 0 0 9.657 9.983 9.011 9.011 0 0 0 8.489 6.017h1.792a9.014 9.014 0 0 0 8.93-7.884l1.132-9.054 1.132 9.054a9.014 9.014 0 0 0 8.93 7.884h1.792a9.02 9.02 0 0 0 8.487-6.017 10 10 0 0 0 9.659-9.983v-1a3 3 0 0 0 -3-3zm-8.673 5.182a1.123 1.123 0 0 1 2.034-.215 1.114 1.114 0 0 1 .117.859l-.571 2.143a3.7 3.7 0 0 1 -2.171-1.015zm-1.712-9.882a5.571 5.571 0 0 0 8.185-3.875l1-5.517a1.107 1.107 0 0 1 2.2.267l-.346 5.534a7.777 7.777 0 0 1 -10.754 6.691l-2.708-1.128q-.431-1.842-.7-3.712zm.385-14.3a5.006 5.006 0 0 1 -5 5 4.953 4.953 0 0 1 -3.226-1.212 3.954 3.954 0 0 0 1.226.212 4 4 0 0 0 0-8 3.954 3.954 0 0 0 -1.226.212 4.953 4.953 0 0 1 3.226-1.212 5.006 5.006 0 0 1 5 5zm-9 0a2 2 0 1 1 2 2 2 2 0 0 1 -2-2zm-25 0a5.006 5.006 0 0 1 5-5 4.953 4.953 0 0 1 3.226 1.212 3.954 3.954 0 0 0 -1.226-.212 4 4 0 0 0 0 8 3.954 3.954 0 0 0 1.226-.212 4.953 4.953 0 0 1 -3.226 1.212 5.006 5.006 0 0 1 -5-5zm9 0a2 2 0 1 1 -2-2 2 2 0 0 1 2 2zm-8.9 17.4a7.777 7.777 0 0 1 -10.752-6.691l-.348-5.534a1.107 1.107 0 0 1 2.2-.267l1 5.517a5.572 5.572 0 0 0 8.186 3.875l3.127-1.737q-.275 1.869-.705 3.712zm-3.461 6.565a1.123 1.123 0 0 1 2.034.215l.591 1.772a3.7 3.7 0 0 1 -2.171 1.015l-.571-2.143a1.114 1.114 0 0 1 .117-.857zm17.245 6.9a7.012 7.012 0 0 1 -6.946 6.135h-1.792a7.009 7.009 0 0 1 -6.346-4.05 10 10 0 0 0 2.683-.629 5.181 5.181 0 0 0 9.717-2.249l.657-13.121a7.685 7.685 0 0 1 4-1.865zm-10.616.541a9.975 9.975 0 0 0 3.9-4.785l2.529-6.505-.497 9.857a3.181 3.181 0 0 1 -5.932 1.436zm25.586 5.594h-1.792a7.012 7.012 0 0 1 -6.946-6.132l-1.973-15.782a7.685 7.685 0 0 1 4 1.865l.657 13.121a5.181 5.181 0 0 0 9.711 2.249 10 10 0 0 0 2.683.629 7.005 7.005 0 0 1 -6.34 4.05zm-4.547-16.881 2.529 6.505a9.975 9.975 0 0 0 3.9 4.785 3.181 3.181 0 0 1 -5.936-1.436zm20.693 2.881a8.009 8.009 0 0 1 -8 8h-.843a7.948 7.948 0 0 1 -7.457-5.1l-2.594-6.67a9.772 9.772 0 0 0 -18.214 0l-2.592 6.67a7.948 7.948 0 0 1 -7.457 5.1h-.843a8.009 8.009 0 0 1 -8-8v-1a1 1 0 0 1 2 0v1.308a5.693 5.693 0 0 0 11.054 1.914l1.2-3.352a47.04 47.04 0 0 0 2.726-14.947 7 7 0 0 0 -.98-13.923c-.109 0-.215.011-.323.016a4.952 4.952 0 0 0 .272-1.151 12.116 12.116 0 0 1 24.1 0 4.9 4.9 0 0 0 .272 1.151c-.108 0-.214-.016-.323-.016a7 7 0 0 0 -.98 13.923 47.04 47.04 0 0 0 2.731 14.947l1.2 3.352a5.693 5.693 0 0 0 11.051-1.914v-1.308a1 1 0 0 1 2 0z"/><path d="m39.9 14.229a1 1 0 0 0 .972.771 1.067 1.067 0 0 0 .23-.026 1 1 0 0 0 .744-1.2 10.042 10.042 0 0 0 -4.294-6.125 1 1 0 0 0 -1.099 1.671 8.055 8.055 0 0 1 3.447 4.909z"/><circle cx="34" cy="7" r="1"/><path d="m32 26c-1.682 0-3 1.757-3 4s1.318 4 3 4 3-1.757 3-4-1.318-4-3-4zm0 6c-.408 0-1-.779-1-2s.592-2 1-2 1 .779 1 2-.592 2-1 2z"/><path d="m52 18a4 4 0 1 0 4-4 4 4 0 0 0 -4 4zm6 0a2 2 0 1 1 -2-2 2 2 0 0 1 2 2z"/><path d="m53 12a3 3 0 1 0 -3-3 3 3 0 0 0 3 3zm0-4a1 1 0 1 1 -1 1 1 1 0 0 1 1-1z"/><circle cx="60" cy="6" r="1"/><circle cx="46" cy="4" r="1"/><circle cx="9" cy="3" r="1"/><path d="m4 19a4 4 0 1 0 4-4 4 4 0 0 0 -4 4zm6 0a2 2 0 1 1 -2-2 2 2 0 0 1 2 2z"/><path d="m5 13a3 3 0 1 0 -3-3 3 3 0 0 0 3 3zm0-4a1 1 0 1 1 -1 1 1 1 0 0 1 1-1z"/><path d="m16 9a3 3 0 1 0 -3-3 3 3 0 0 0 3 3zm0-4a1 1 0 1 1 -1 1 1 1 0 0 1 1-1z"/></g></svg>